<svg width="1280" height="720" xmlns="http://www.w3.org/2000/svg" xmlns:xlink="http://www.w3.org/1999/xlink" overflow="hidden"><g><rect x="0" y="0" width="1280" height="720" fill="#FFFFFF"/><text font-family="Yu Gothic,Yu Gothic_MSFontService,sans-serif" font-weight="400" font-size="24" transform="translate(32.0547 38)">tb_generic_fifo_sc_a</text><text font-family="Yu Gothic,Yu Gothic_MSFontService,sans-serif" font-weight="400" font-size="24" transform="translate(516.794 40)">generic_fifo_sc_a</text><path d="M37 70.1628C37 60.1318 45.1318 52 55.1628 52L229.887 52C239.918 52 248.05 60.1318 248.05 70.1628L248.05 663.837C248.05 673.868 239.918 682 229.887 682L55.1628 682C45.1318 682 37 673.868 37 663.837Z" stroke="#042433" stroke-width="2" stroke-miterlimit="8" fill="none" fill-rule="evenodd"/><rect x="172" y="72" width="75" height="19" stroke="#042433" stroke-width="2" stroke-miterlimit="8" fill="none"/><rect x="172" y="110" width="75" height="18" stroke="#042433" stroke-width="2" stroke-miterlimit="8" fill="none"/><rect x="172" y="147" width="76" height="19" stroke="#042433" stroke-width="2" stroke-miterlimit="8" fill="none"/><rect x="172" y="222" width="75" height="19" stroke="#042433" stroke-width="2" stroke-miterlimit="8" fill="none"/><rect x="172" y="185" width="75" height="19" stroke="#042433" stroke-width="2" stroke-miterlimit="8" fill="none"/><rect x="172" y="260" width="75" height="19" stroke="#042433" stroke-width="2" stroke-miterlimit="8" fill="none"/><rect x="172" y="298" width="75" height="19" stroke="#042433" stroke-width="2" stroke-miterlimit="8" fill="none"/><rect x="172" y="335" width="75" height="19" stroke="#042433" stroke-width="2" stroke-miterlimit="8" fill="none"/><rect x="172" y="373" width="75" height="19" stroke="#042433" stroke-width="2" stroke-miterlimit="8" fill="none"/><rect x="172" y="411" width="75" height="19" stroke="#042433" stroke-width="2" stroke-miterlimit="8" fill="none"/><path d="M1258 659.616C1258 671.978 1247.98 682 1235.62 682L496.384 682C484.022 682 474 671.978 474 659.616L474 69.3796C474 57.0173 484.022 46.9957 496.384 46.9957L1235.62 46.9957C1247.98 46.9957 1258 57.0173 1258 69.3796Z" stroke="#042433" stroke-width="2" stroke-miterlimit="8" fill="none" fill-rule="evenodd"/><path d="M965 101.694C965 94.1308 971.131 88 978.694 88L1229.31 88C1236.87 88 1243 94.1308 1243 101.694L1243 321.306C1243 328.869 1236.87 335 1229.31 335L978.694 335C971.131 335 965 328.869 965 321.306Z" stroke="#042433" stroke-width="2" stroke-miterlimit="8" fill="none" fill-rule="evenodd"/><text font-family="Yu Gothic,Yu Gothic_MSFontService,sans-serif" font-weight="400" font-size="24" transform="translate(974.499 74)">generic_dpram</text><text font-family="Yu Gothic,Yu Gothic_MSFontService,sans-serif" font-weight="400" font-size="24" transform="translate(130.675 87)">clk</text><text font-family="Yu Gothic,Yu Gothic_MSFontService,sans-serif" font-weight="400" font-size="24" transform="translate(132.695 125)">rst</text><text font-family="Yu Gothic,Yu Gothic_MSFontService,sans-serif" font-weight="400" font-size="24" transform="translate(134.714 163)">clr</text><text font-family="Yu Gothic,Yu Gothic_MSFontService,sans-serif" font-weight="400" font-size="24" transform="translate(127.814 201)">din</text><text font-family="Yu Gothic,Yu Gothic_MSFontService,sans-serif" font-weight="400" font-size="24" transform="translate(130.002 239)">we</text><text font-family="Yu Gothic,Yu Gothic_MSFontService,sans-serif" font-weight="400" font-size="24" transform="translate(140.1 277)">re</text><text font-family="Yu Gothic,Yu Gothic_MSFontService,sans-serif" font-weight="400" font-size="24" transform="translate(111.995 314)">dout</text><text font-family="Yu Gothic,Yu Gothic_MSFontService,sans-serif" font-weight="400" font-size="24" transform="translate(126.973 352)">full</text><text font-family="Yu Gothic,Yu Gothic_MSFontService,sans-serif" font-weight="400" font-size="24" transform="translate(93.3139 390)">empty</text><text font-family="Yu Gothic,Yu Gothic_MSFontService,sans-serif" font-weight="400" font-size="24" transform="translate(106.104 428)">full_</text><text font-family="Yu Gothic,Yu Gothic_MSFontService,sans-serif" font-weight="400" font-size="24" transform="translate(153.104 428)">r</text><rect x="172" y="486" width="75" height="19" stroke="#042433" stroke-width="2" stroke-miterlimit="8" fill="none"/><rect x="171" y="524" width="76" height="19" stroke="#042433" stroke-width="2" stroke-miterlimit="8" fill="none"/><rect x="172" y="637" width="76" height="19" stroke="#042433" stroke-width="2" stroke-miterlimit="8" fill="none"/><rect x="171" y="599" width="75" height="19" stroke="#042433" stroke-width="2" stroke-miterlimit="8" fill="none"/><rect x="171" y="561" width="75" height="19" stroke="#042433" stroke-width="2" stroke-miterlimit="8" fill="none"/><rect x="171" y="448" width="75" height="19" stroke="#042433" stroke-width="2" stroke-miterlimit="8" fill="none"/><text font-family="Yu Gothic,Yu Gothic_MSFontService,sans-serif" font-weight="400" font-size="24" transform="translate(76.0469 465)">empty_</text><text font-family="Yu Gothic,Yu Gothic_MSFontService,sans-serif" font-weight="400" font-size="24" transform="translate(156.38 465)">r</text><text font-family="Yu Gothic,Yu Gothic_MSFontService,sans-serif" font-weight="400" font-size="24" transform="translate(94.2227 503)">full_</text><text font-family="Yu Gothic,Yu Gothic_MSFontService,sans-serif" font-weight="400" font-size="24" transform="translate(141.223 503)">n</text><text font-family="Yu Gothic,Yu Gothic_MSFontService,sans-serif" font-weight="400" font-size="24" transform="translate(67.0599 538)">empty_n</text><text font-family="Yu Gothic,Yu Gothic_MSFontService,sans-serif" font-weight="400" font-size="24" transform="translate(66.6148 574)">full_n_</text><text font-family="Yu Gothic,Yu Gothic_MSFontService,sans-serif" font-weight="400" font-size="24" transform="translate(139.615 574)">r</text><text font-family="Yu Gothic,Yu Gothic_MSFontService,sans-serif" font-weight="400" font-size="24" transform="translate(46.1915 613)">empty_n_r</text><text font-family="Yu Gothic,Yu Gothic_MSFontService,sans-serif" font-weight="400" font-size="24" transform="translate(102.065 652)">level</text><rect x="475" y="72" width="75" height="19" stroke="#042433" stroke-width="2" stroke-miterlimit="8" fill="none"/><rect x="475" y="110" width="75" height="18" stroke="#042433" stroke-width="2" stroke-miterlimit="8" fill="none"/><rect x="475" y="147" width="75" height="19" stroke="#042433" stroke-width="2" stroke-miterlimit="8" fill="none"/><rect x="475" y="222" width="75" height="19" stroke="#042433" stroke-width="2" stroke-miterlimit="8" fill="none"/><rect x="475" y="185" width="75" height="19" stroke="#042433" stroke-width="2" stroke-miterlimit="8" fill="none"/><rect x="475" y="260" width="75" height="19" stroke="#042433" stroke-width="2" stroke-miterlimit="8" fill="none"/><rect x="475" y="298" width="75" height="19" stroke="#042433" stroke-width="2" stroke-miterlimit="8" fill="none"/><rect x="475" y="335" width="75" height="19" stroke="#042433" stroke-width="2" stroke-miterlimit="8" fill="none"/><rect x="475" y="373" width="75" height="19" stroke="#042433" stroke-width="2" stroke-miterlimit="8" fill="none"/><rect x="475" y="411" width="75" height="19" stroke="#042433" stroke-width="2" stroke-miterlimit="8" fill="none"/><text font-family="Yu Gothic,Yu Gothic_MSFontService,sans-serif" font-weight="400" font-size="24" transform="translate(560.713 87)">clk</text><text font-family="Yu Gothic,Yu Gothic_MSFontService,sans-serif" font-weight="400" font-size="24" transform="translate(560.713 125)">rst</text><text font-family="Yu Gothic,Yu Gothic_MSFontService,sans-serif" font-weight="400" font-size="24" transform="translate(560.713 163)">clr</text><text font-family="Yu Gothic,Yu Gothic_MSFontService,sans-serif" font-weight="400" font-size="24" transform="translate(560.713 201)">din</text><text font-family="Yu Gothic,Yu Gothic_MSFontService,sans-serif" font-weight="400" font-size="24" transform="translate(560.713 239)">we</text><text font-family="Yu Gothic,Yu Gothic_MSFontService,sans-serif" font-weight="400" font-size="24" transform="translate(560.713 277)">re</text><text font-family="Yu Gothic,Yu Gothic_MSFontService,sans-serif" font-weight="400" font-size="24" transform="translate(560.713 314)">dout</text><text font-family="Yu Gothic,Yu Gothic_MSFontService,sans-serif" font-weight="400" font-size="24" transform="translate(560.713 352)">full</text><text font-family="Yu Gothic,Yu Gothic_MSFontService,sans-serif" font-weight="400" font-size="24" transform="translate(560.713 390)">empty</text><text font-family="Yu Gothic,Yu Gothic_MSFontService,sans-serif" font-weight="400" font-size="24" transform="translate(560.713 428)">full_</text><text font-family="Yu Gothic,Yu Gothic_MSFontService,sans-serif" font-weight="400" font-size="24" transform="translate(607.713 428)">r</text><rect x="475" y="486" width="75" height="19" stroke="#042433" stroke-width="2" stroke-miterlimit="8" fill="none"/><rect x="475" y="524" width="75" height="19" stroke="#042433" stroke-width="2" stroke-miterlimit="8" fill="none"/><rect x="475" y="637" width="75" height="19" stroke="#042433" stroke-width="2" stroke-miterlimit="8" fill="none"/><rect x="475" y="599" width="75" height="19" stroke="#042433" stroke-width="2" stroke-miterlimit="8" fill="none"/><rect x="475" y="561" width="75" height="19" stroke="#042433" stroke-width="2" stroke-miterlimit="8" fill="none"/><rect x="475" y="448" width="75" height="19" stroke="#042433" stroke-width="2" stroke-miterlimit="8" fill="none"/><text font-family="Yu Gothic,Yu Gothic_MSFontService,sans-serif" font-weight="400" font-size="24" transform="translate(560.713 465)">empty_</text><text font-family="Yu Gothic,Yu Gothic_MSFontService,sans-serif" font-weight="400" font-size="24" transform="translate(641.046 465)">r</text><text font-family="Yu Gothic,Yu Gothic_MSFontService,sans-serif" font-weight="400" font-size="24" transform="translate(560.713 503)">full_</text><text font-family="Yu Gothic,Yu Gothic_MSFontService,sans-serif" font-weight="400" font-size="24" transform="translate(607.713 503)">n</text><text font-family="Yu Gothic,Yu Gothic_MSFontService,sans-serif" font-weight="400" font-size="24" transform="translate(560.713 538)">empty_n</text><text font-family="Yu Gothic,Yu Gothic_MSFontService,sans-serif" font-weight="400" font-size="24" transform="translate(560.713 574)">full_n_</text><text font-family="Yu Gothic,Yu Gothic_MSFontService,sans-serif" font-weight="400" font-size="24" transform="translate(633.713 574)">r</text><text font-family="Yu Gothic,Yu Gothic_MSFontService,sans-serif" font-weight="400" font-size="24" transform="translate(560.713 613)">empty_n_r</text><text font-family="Yu Gothic,Yu Gothic_MSFontService,sans-serif" font-weight="400" font-size="24" transform="translate(560.713 652)">level</text><rect x="965" y="110" width="75" height="19" stroke="#042433" stroke-width="2" stroke-miterlimit="8" fill="none"/><rect x="965" y="147" width="75" height="19" stroke="#042433" stroke-width="2" stroke-miterlimit="8" fill="none"/><rect x="965" y="223" width="75" height="18" stroke="#042433" stroke-width="2" stroke-miterlimit="8" fill="none"/><rect x="965" y="185" width="75" height="19" stroke="#042433" stroke-width="2" stroke-miterlimit="8" fill="none"/><rect x="965" y="298" width="75" height="19" stroke="#042433" stroke-width="2" stroke-miterlimit="8" fill="none"/><rect x="716" y="111" width="76" height="19" stroke="#042433" stroke-width="2" stroke-miterlimit="8" fill="none"/><rect x="716" y="149" width="76" height="19" stroke="#042433" stroke-width="2" stroke-miterlimit="8" fill="none"/><rect x="602" y="223" width="75" height="18" stroke="#042433" stroke-width="2" stroke-miterlimit="8" fill="none"/><rect x="619" y="297" width="75" height="19" stroke="#042433" stroke-width="2" stroke-miterlimit="8" fill="none"/><rect x="602" y="184" width="75" height="19" stroke="#042433" stroke-width="2" stroke-miterlimit="8" fill="none"/><text font-family="Yu Gothic,Yu Gothic_MSFontService,sans-serif" font-weight="400" font-size="24" transform="translate(653.957 127)">raddr</text><text font-family="Yu Gothic,Yu Gothic_MSFontService,sans-serif" font-weight="400" font-size="24" transform="translate(644.771 166)">waddr</text><path d="M677.002 193 957.937 193.463 957.934 195.463 676.998 195ZM956.609 190.46 964.602 194.474 956.596 198.46Z"/><path d="M677 231 958.045 231 958.045 233 677 233ZM956.712 228 964.712 232 956.712 236Z"/><path d="M0.00980736-0.999952 166.305 0.631043 166.285 2.63095-0.00980736 0.999952ZM165.001-2.38189 172.962 1.69638 164.923 5.61773Z" transform="matrix(1 0 0 -1 792 120.696)"/><path d="M0.00980736-0.999952 166.305 0.631043 166.285 2.63095-0.00980736 0.999952ZM165.001-2.38189 172.962 1.69638 164.923 5.61773Z" transform="matrix(1 0 0 -1 792 158.696)"/><path d="M964.438 308.572 700.664 308.014 700.669 306.014 964.442 306.572ZM701.992 311.017 694 307 702.008 303.017Z"/><path d="M247 269 467.827 269 467.827 271 247 271ZM466.494 266 474.494 270 466.494 274Z"/><path d="M247 231 467.827 231 467.827 233 247 233ZM466.494 228 474.494 232 466.494 236Z"/><path d="M247 193 467.827 193 467.827 195 247 195ZM466.494 190 474.494 194 466.494 198Z"/><path d="M248 156 468.491 156 468.491 158 248 158ZM467.157 153 475.157 157 467.157 161Z"/><path d="M247 118 467.827 118 467.827 120 247 120ZM466.494 115 474.494 119 466.494 123Z"/><path d="M247 80 467.827 80.0001 467.827 82.0001 247 82ZM466.494 77.0001 474.494 81.0001 466.494 85.0001Z"/><path d="M4.61494e-07-1 220.827-0.999898 220.827 1.0001-4.61494e-07 1ZM219.494-3.9999 227.494 0.000104987 219.494 4.0001Z" transform="matrix(-1 0 0 1 474.494 307)"/><path d="M4.61494e-07-1 220.827-0.999898 220.827 1.0001-4.61494e-07 1ZM219.494-3.9999 227.494 0.000104987 219.494 4.0001Z" transform="matrix(-1 0 0 1 474.494 345)"/><path d="M4.61494e-07-1 220.827-0.999898 220.827 1.0001-4.61494e-07 1ZM219.494-3.9999 227.494 0.000104987 219.494 4.0001Z" transform="matrix(-1 0 0 1 474.494 383)"/><path d="M4.61494e-07-1 220.827-0.999898 220.827 1.0001-4.61494e-07 1ZM219.494-3.9999 227.494 0.000104987 219.494 4.0001Z" transform="matrix(-1 0 0 1 474.494 420)"/><path d="M4.59456e-07-1 221.836-0.999898 221.836 1.0001-4.59456e-07 1ZM220.502-3.9999 228.502 0.000104987 220.502 4.0001Z" transform="matrix(-1 0 0 1 474.502 458)"/><path d="M4.62862e-07-1 220.154-0.999898 220.154 1.0001-4.62862e-07 1ZM218.821-3.9999 226.821 0.000104987 218.821 4.0001Z" transform="matrix(-1 0 0 1 473.821 495)"/><path d="M4.60813e-07-1 221.163-0.999898 221.163 1.0001-4.60813e-07 1ZM219.83-3.9999 227.83 0.000104987 219.83 4.0001Z" transform="matrix(-1 0 0 1 474.83 533)"/><path d="M4.59456e-07-1 221.836-0.999898 221.836 1.0001-4.59456e-07 1ZM220.502-3.9999 228.502 0.000104987 220.502 4.0001Z" transform="matrix(-1 0 0 1 474.502 571)"/><path d="M4.59456e-07-1 221.836-0.999898 221.836 1.0001-4.59456e-07 1ZM220.502-3.9999 228.502 0.000104987 220.502 4.0001Z" transform="matrix(-1 0 0 1 474.502 608)"/><path d="M4.62177e-07-1 220.491-0.999898 220.491 1.0001-4.62177e-07 1ZM219.157-3.9999 227.157 0.000104987 219.157 4.0001Z" transform="matrix(-1 0 0 1 475.157 646)"/><text font-family="Yu Gothic,Yu Gothic_MSFontService,sans-serif" font-weight="400" font-size="24" transform="translate(1050.09 128)">raddr</text><text font-family="Yu Gothic,Yu Gothic_MSFontService,sans-serif" font-weight="400" font-size="24" transform="translate(1050.09 165)">waddr</text><text font-family="Yu Gothic,Yu Gothic_MSFontService,sans-serif" font-weight="400" font-size="24" transform="translate(1050.09 202)">din</text><text font-family="Yu Gothic,Yu Gothic_MSFontService,sans-serif" font-weight="400" font-size="24" transform="translate(1050.09 240)">we</text><text font-family="Yu Gothic,Yu Gothic_MSFontService,sans-serif" font-weight="400" font-size="24" transform="translate(1050.09 317)">do</text></g></svg>