<svg width="1280" height="720" xmlns="http://www.w3.org/2000/svg" xmlns:xlink="http://www.w3.org/1999/xlink" overflow="hidden"><g><rect x="0" y="0" width="1280" height="720" fill="#FFFFFF"/><text font-family="Yu Gothic,Yu Gothic_MSFontService,sans-serif" font-weight="400" font-size="24" transform="translate(257.017 29)">tb_gpio_controller</text><text font-family="Yu Gothic,Yu Gothic_MSFontService,sans-serif" font-weight="400" font-size="24" transform="translate(840.423 32)">gpio_controlle</text><text font-family="Yu Gothic,Yu Gothic_MSFontService,sans-serif" font-weight="400" font-size="24" transform="translate(995.923 32)">r</text><path d="M255 61.5542C255 50.7547 263.755 42 274.554 42L489.426 42C500.226 42 508.981 50.7547 508.981 61.5542L508.981 676.446C508.981 687.245 500.226 696 489.426 696L274.554 696C263.755 696 255 687.245 255 676.446Z" stroke="#042433" stroke-width="2" stroke-miterlimit="8" fill="none" fill-rule="evenodd"/><rect x="426" y="166" width="83" height="22" stroke="#042433" stroke-width="2" stroke-miterlimit="8" fill="none"/><rect x="426" y="68" width="83" height="22" stroke="#042433" stroke-width="2" stroke-miterlimit="8" fill="none"/><rect x="426" y="117" width="83" height="22" stroke="#042433" stroke-width="2" stroke-miterlimit="8" fill="none"/><rect x="426" y="646" width="83" height="22" stroke="#042433" stroke-width="2" stroke-miterlimit="8" fill="none"/><rect x="426" y="214" width="83" height="22" stroke="#042433" stroke-width="2" stroke-miterlimit="8" fill="none"/><rect x="426" y="261" width="83" height="22" stroke="#042433" stroke-width="2" stroke-miterlimit="8" fill="none"/><rect x="426" y="310" width="83" height="22" stroke="#042433" stroke-width="2" stroke-miterlimit="8" fill="none"/><rect x="426" y="358" width="83" height="22" stroke="#042433" stroke-width="2" stroke-miterlimit="8" fill="none"/><rect x="426" y="406" width="83" height="22" stroke="#042433" stroke-width="2" stroke-miterlimit="8" fill="none"/><rect x="426" y="455" width="83" height="22" stroke="#042433" stroke-width="2" stroke-miterlimit="8" fill="none"/><rect x="426" y="503" width="83" height="22" stroke="#042433" stroke-width="2" stroke-miterlimit="8" fill="none"/><rect x="426" y="551" width="83" height="22" stroke="#042433" stroke-width="2" stroke-miterlimit="8" fill="none"/><rect x="426" y="599" width="83" height="22" stroke="#042433" stroke-width="2" stroke-miterlimit="8" fill="none"/><path d="M1094 676.446C1094 687.245 1085.25 696 1074.45 696L859.574 696C848.774 696 840.019 687.245 840.019 676.446L840.019 61.5542C840.019 50.7548 848.774 42 859.574 42L1074.45 42C1085.25 42 1094 50.7548 1094 61.5542Z" stroke="#042433" stroke-width="2" stroke-miterlimit="8" fill="none" fill-rule="evenodd"/><rect x="840" y="550" width="83" height="22" stroke="#042433" stroke-width="2" stroke-miterlimit="8" fill="none"/><rect x="840" y="647" width="83" height="22" stroke="#042433" stroke-width="2" stroke-miterlimit="8" fill="none"/><rect x="840" y="599" width="83" height="22" stroke="#042433" stroke-width="2" stroke-miterlimit="8" fill="none"/><rect x="840" y="69" width="83" height="22" stroke="#042433" stroke-width="2" stroke-miterlimit="8" fill="none"/><rect x="840" y="502" width="83" height="22" stroke="#042433" stroke-width="2" stroke-miterlimit="8" fill="none"/><rect x="840" y="454" width="83" height="22" stroke="#042433" stroke-width="2" stroke-miterlimit="8" fill="none"/><rect x="840" y="406" width="83" height="22" stroke="#042433" stroke-width="2" stroke-miterlimit="8" fill="none"/><rect x="840" y="358" width="83" height="22" stroke="#042433" stroke-width="2" stroke-miterlimit="8" fill="none"/><rect x="840" y="310" width="83" height="22" stroke="#042433" stroke-width="2" stroke-miterlimit="8" fill="none"/><rect x="840" y="261" width="83" height="22" stroke="#042433" stroke-width="2" stroke-miterlimit="8" fill="none"/><rect x="840" y="213" width="83" height="22" stroke="#042433" stroke-width="2" stroke-miterlimit="8" fill="none"/><rect x="840" y="165" width="83" height="22" stroke="#042433" stroke-width="2" stroke-miterlimit="8" fill="none"/><rect x="840" y="117" width="83" height="22" stroke="#042433" stroke-width="2" stroke-miterlimit="8" fill="none"/><path d="M509.003 78 833.09 78.9742 833.084 80.9742 508.997 80ZM831.765 75.9702 839.753 79.9942 831.741 83.9702Z"/><text font-family="Yu Gothic,Yu Gothic_MSFontService,sans-serif" font-weight="400" font-size="24" transform="translate(384.239 87)">clk</text><text font-family="Yu Gothic,Yu Gothic_MSFontService,sans-serif" font-weight="400" font-size="24" transform="translate(333.919 184)">wb_cyc</text><text font-family="Yu Gothic,Yu Gothic_MSFontService,sans-serif" font-weight="400" font-size="24" transform="translate(335.771 233)">wb_stb</text><text font-family="Yu Gothic,Yu Gothic_MSFontService,sans-serif" font-weight="400" font-size="24" transform="translate(320.624 280)">wb_addr</text><text font-family="Yu Gothic,Yu Gothic_MSFontService,sans-serif" font-weight="400" font-size="24" transform="translate(338.463 328)">wb_w</text><text font-family="Yu Gothic,Yu Gothic_MSFontService,sans-serif" font-weight="400" font-size="24" transform="translate(401.797 328)">e</text><text font-family="Yu Gothic,Yu Gothic_MSFontService,sans-serif" font-weight="400" font-size="24" transform="translate(302.448 377)">wb_wdata</text><path d="M509 127 833.087 127.015 833.087 129.015 509 129ZM831.754 124.015 839.753 128.015 831.753 132.015Z"/><path d="M0.00160327-0.999999 324.089-0.480397 324.086 1.5196-0.00160327 0.999999ZM322.76-3.48253 330.753 0.530289 322.747 4.51746Z" transform="matrix(1 0 0 -1 509 176.53)"/><path d="M0.00213621-0.999998 324.089-0.307678 324.084 1.69232-0.00213621 0.999998ZM322.762-3.31052 330.753 0.706562 322.745 4.68946Z" transform="matrix(1 0 0 -1 509 224.707)"/><path d="M0.000826555-1 324.087-0.732125 324.085 1.26787-0.000826555 1ZM322.757-3.73322 330.753 0.273386 322.75 4.26677Z" transform="matrix(1 0 0 -1 509 272.273)"/><path d="M0.000754818-1 324.087-0.755373 324.086 1.24463-0.000754818 1ZM322.756-3.75638 330.753 0.249659 322.75 4.24362Z" transform="matrix(1 0 0 -1 509 321.25)"/><text font-family="Yu Gothic,Yu Gothic_MSFontService,sans-serif" font-weight="400" font-size="24" transform="translate(312.785 426)">wb_rdata</text><text font-family="Yu Gothic,Yu Gothic_MSFontService,sans-serif" font-weight="400" font-size="24" transform="translate(332.664 473)">wb_ack</text><text font-family="Yu Gothic,Yu Gothic_MSFontService,sans-serif" font-weight="400" font-size="24" transform="translate(360.678 521)">done</text><text font-family="Yu Gothic,Yu Gothic_MSFontService,sans-serif" font-weight="400" font-size="24" transform="translate(302.448 569)">read_valid</text><text font-family="Yu Gothic,Yu Gothic_MSFontService,sans-serif" font-weight="400" font-size="24" transform="translate(354.283 617)">ready</text><text font-family="Yu Gothic,Yu Gothic_MSFontService,sans-serif" font-weight="400" font-size="24" transform="translate(360.678 135)">rst_n</text><path d="M0.000754818-1 324.087-0.755373 324.086 1.24463-0.000754818 1ZM322.756-3.75638 330.753 0.249659 322.75 4.24362Z" transform="matrix(-1 0 0 1 839.753 369)"/><path d="M0.000754818-1 324.087-0.755373 324.086 1.24463-0.000754818 1ZM322.756-3.75638 330.753 0.249659 322.75 4.24362Z" transform="matrix(-1 0 0 1 839.753 417)"/><path d="M0.000826555-1 324.087-0.732125 324.085 1.26787-0.000826555 1ZM322.757-3.73322 330.753 0.273386 322.75 4.26677Z" transform="matrix(-1 0 0 1 839.753 465)"/><path d="M0.0021359-0.999998 324.09-0.307779 324.085 1.69222-0.0021359 0.999998ZM322.762-3.31062 330.753 0.706457 322.745 4.68936Z" transform="matrix(-1 0 0 1 839.753 513)"/><path d="M0.00160327-0.999999 324.089-0.480397 324.086 1.5196-0.00160327 0.999999ZM322.76-3.48253 330.753 0.530289 322.747 4.51746Z" transform="matrix(-1 0 0 1 839.753 561)"/><path d="M839.753 611.015 515.666 611 515.666 609 839.753 609.015ZM517 614 509 610 517 606Z"/><text font-family="Yu Gothic,Yu Gothic_MSFontService,sans-serif" font-weight="400" font-size="24" transform="translate(368.857 666)">gpio</text><text font-family="Yu Gothic,Yu Gothic_MSFontService,sans-serif" font-weight="400" font-size="24" transform="translate(935.592 86)">clk</text><text font-family="Yu Gothic,Yu Gothic_MSFontService,sans-serif" font-weight="400" font-size="24" transform="translate(935.672 183)">wb_cyc</text><text font-family="Yu Gothic,Yu Gothic_MSFontService,sans-serif" font-weight="400" font-size="24" transform="translate(936.324 232)">wb_stb</text><text font-family="Yu Gothic,Yu Gothic_MSFontService,sans-serif" font-weight="400" font-size="24" transform="translate(935.577 279)">wb_addr</text><text font-family="Yu Gothic,Yu Gothic_MSFontService,sans-serif" font-weight="400" font-size="24" transform="translate(935.416 328)">wb_w</text><text font-family="Yu Gothic,Yu Gothic_MSFontService,sans-serif" font-weight="400" font-size="24" transform="translate(998.75 328)">e</text><text font-family="Yu Gothic,Yu Gothic_MSFontService,sans-serif" font-weight="400" font-size="24" transform="translate(933.001 376)">wb_wdata</text><text font-family="Yu Gothic,Yu Gothic_MSFontService,sans-serif" font-weight="400" font-size="24" transform="translate(936.138 425)">wb_rdata</text><text font-family="Yu Gothic,Yu Gothic_MSFontService,sans-serif" font-weight="400" font-size="24" transform="translate(934.417 472)">wb_ack</text><text font-family="Yu Gothic,Yu Gothic_MSFontService,sans-serif" font-weight="400" font-size="24" transform="translate(936.031 521)">done</text><text font-family="Yu Gothic,Yu Gothic_MSFontService,sans-serif" font-weight="400" font-size="24" transform="translate(933.001 568)">read_valid</text><text font-family="Yu Gothic,Yu Gothic_MSFontService,sans-serif" font-weight="400" font-size="24" transform="translate(932.908 617)">ready</text><text font-family="Yu Gothic,Yu Gothic_MSFontService,sans-serif" font-weight="400" font-size="24" transform="translate(934.831 135)">rst_n</text><text font-family="Yu Gothic,Yu Gothic_MSFontService,sans-serif" font-weight="400" font-size="24" transform="translate(932.564 664)">gpio</text><path d="M515.669 656.02 833.09 656.974 833.084 658.974 515.663 658.02ZM516.988 661.024 509 657 517.012 653.024ZM831.765 653.97 839.753 657.994 831.741 661.97Z"/></g></svg>