<svg width="1280" height="720" xmlns="http://www.w3.org/2000/svg" xmlns:xlink="http://www.w3.org/1999/xlink" overflow="hidden"><g><rect x="0" y="0" width="1280" height="720" fill="#FFFFFF"/><path d="M366 192.167C366 174.954 379.954 161 397.167 161L938.833 161C956.046 161 970 174.954 970 192.167L970 316.833C970 334.046 956.046 348 938.833 348L397.167 348C379.954 348 366 334.046 366 316.833Z" stroke="#042433" stroke-width="2" stroke-miterlimit="8" fill="none" fill-rule="evenodd"/><path d="M403 460.678C403 451.467 410.467 444 419.678 444L758.322 444C767.533 444 775 451.467 775 460.678L775 637.322C775 646.533 767.533 654 758.322 654L419.678 654C410.467 654 403 646.533 403 637.322Z" stroke="#042433" stroke-width="2" stroke-miterlimit="8" fill="none" fill-rule="evenodd"/><text font-family="Yu Gothic,Yu Gothic_MSFontService,sans-serif" font-weight="400" font-size="24" transform="translate(375.263 142)">tb_rxuartlite</text><text font-family="Yu Gothic,Yu Gothic_MSFontService,sans-serif" font-weight="400" font-size="24" transform="translate(395.353 681)">rxuartlite</text><rect x="446" y="444" width="101" height="51" stroke="#042433" stroke-width="2" stroke-miterlimit="8" fill="none"/><text font-family="Yu Gothic,Yu Gothic_MSFontService,sans-serif" font-weight="400" font-size="24" transform="translate(448.658 522)">i_uart_rx</text><rect x="619" y="444" width="101" height="51" stroke="#042433" stroke-width="2" stroke-miterlimit="8" fill="none"/><text font-family="Yu Gothic,Yu Gothic_MSFontService,sans-serif" font-weight="400" font-size="24" transform="translate(630.69 522)">o_data</text><rect x="619" y="298" width="101" height="50" stroke="#042433" stroke-width="2" stroke-miterlimit="8" fill="none"/><text font-family="Yu Gothic,Yu Gothic_MSFontService,sans-serif" font-weight="400" font-size="24" transform="translate(627.24 284)">rx_data</text><path d="M0 0 0.000104987 95.6968" stroke="#000000" stroke-width="2" stroke-miterlimit="8" fill="none" fill-rule="evenodd" transform="matrix(-1 0 0 1 669 348)"/><rect x="446" y="298" width="101" height="50" stroke="#042433" stroke-width="2" stroke-miterlimit="8" fill="none"/><text font-family="Yu Gothic,Yu Gothic_MSFontService,sans-serif" font-weight="400" font-size="24" transform="translate(459.742 286)">rx_line</text><path d="M0 0 0.000104987 95.6968" stroke="#000000" stroke-width="2" stroke-miterlimit="8" fill="none" fill-rule="evenodd" transform="matrix(-1 0 0 1 496 348)"/><rect x="669" y="549" width="106" height="51" stroke="#042433" stroke-width="2" stroke-miterlimit="8" fill="none"/><text font-family="Yu Gothic,Yu Gothic_MSFontService,sans-serif" font-weight="400" font-size="24" transform="translate(606.19 582)">o_wr</text><rect x="799" y="298" width="93" height="50" stroke="#042433" stroke-width="2" stroke-miterlimit="8" fill="none"/><text font-family="Yu Gothic,Yu Gothic_MSFontService,sans-serif" font-weight="400" font-size="24" transform="translate(815.125 286)">rx_wr</text><path d="M845.786 348 845.786 574.095 775 574.095" stroke="#000000" stroke-width="2" stroke-miterlimit="8" fill="none" fill-rule="evenodd"/></g></svg>