<svg width="1280" height="720" xmlns="http://www.w3.org/2000/svg" xmlns:xlink="http://www.w3.org/1999/xlink" overflow="hidden"><g><rect x="0" y="0" width="1280" height="720" fill="#FFFFFF"/><text font-family="Yu Gothic,Yu Gothic_MSFontService,sans-serif" font-weight="400" font-size="24" transform="translate(261.44 72)">tb</text><text font-family="Yu Gothic,Yu Gothic_MSFontService,sans-serif" font-weight="400" font-size="24" transform="translate(283.94 72)">_</text><text font-family="Yu Gothic,Yu Gothic_MSFontService,sans-serif" font-weight="400" font-size="24" transform="translate(295.94 72)">spi_master.v</text><text font-family="Yu Gothic,Yu Gothic_MSFontService,sans-serif" font-weight="400" font-size="24" transform="translate(739.012 72)">spi_master.v</text><path d="M259 104.913C259 93.3629 268.363 84 279.913 84L481.087 84C492.637 84 502 93.3629 502 104.913L502 677.087C502 688.637 492.637 698 481.087 698L279.913 698C268.363 698 259 688.637 259 677.087Z" stroke="#042433" stroke-width="2" stroke-miterlimit="8" fill="none" fill-rule="evenodd"/><rect x="426" y="120" width="76" height="19" stroke="#042433" stroke-width="2" stroke-miterlimit="8" fill="none"/><rect x="426" y="166" width="76" height="19" stroke="#042433" stroke-width="2" stroke-miterlimit="8" fill="none"/><rect x="427" y="212" width="75" height="19" stroke="#042433" stroke-width="2" stroke-miterlimit="8" fill="none"/><rect x="426" y="258" width="76" height="19" stroke="#042433" stroke-width="2" stroke-miterlimit="8" fill="none"/><rect x="426" y="304" width="76" height="19" stroke="#042433" stroke-width="2" stroke-miterlimit="8" fill="none"/><rect x="426" y="350" width="76" height="19" stroke="#042433" stroke-width="2" stroke-miterlimit="8" fill="none"/><rect x="426" y="396" width="76" height="19" stroke="#042433" stroke-width="2" stroke-miterlimit="8" fill="none"/><rect x="426" y="442" width="76" height="19" stroke="#042433" stroke-width="2" stroke-miterlimit="8" fill="none"/><path d="M976 689.293C976 694.102 972.102 698 967.293 698L737.707 698C732.898 698 729 694.102 729 689.293L729 92.707C729 87.8983 732.898 84 737.707 84L967.293 84C972.102 84 976 87.8983 976 92.707Z" stroke="#042433" stroke-width="2" stroke-miterlimit="8" fill="none" fill-rule="evenodd"/><text font-family="Yu Gothic,Yu Gothic_MSFontService,sans-serif" font-weight="400" font-size="24" transform="translate(373.12 138)">rst</text><text font-family="Yu Gothic,Yu Gothic_MSFontService,sans-serif" font-weight="400" font-size="24" transform="translate(402.453 138)">b</text><text font-family="Yu Gothic,Yu Gothic_MSFontService,sans-serif" font-weight="400" font-size="24" transform="translate(381.535 414)">di</text><text font-family="Yu Gothic,Yu Gothic_MSFontService,sans-serif" font-weight="400" font-size="24" transform="translate(401.701 414)">n</text><text font-family="Yu Gothic,Yu Gothic_MSFontService,sans-serif" font-weight="400" font-size="24" transform="translate(392.306 460)">s</text><text font-family="Yu Gothic,Yu Gothic_MSFontService,sans-serif" font-weight="400" font-size="24" transform="translate(404.472 460)">s</text><text font-family="Yu Gothic,Yu Gothic_MSFontService,sans-serif" font-weight="400" font-size="24" transform="translate(385.237 184)">cl</text><text font-family="Yu Gothic,Yu Gothic_MSFontService,sans-serif" font-weight="400" font-size="24" transform="translate(403.904 184)">k</text><text font-family="Yu Gothic,Yu Gothic_MSFontService,sans-serif" font-weight="400" font-size="24" transform="translate(375.476 230)">ml</text><text font-family="Yu Gothic,Yu Gothic_MSFontService,sans-serif" font-weight="400" font-size="24" transform="translate(402.476 230)">b</text><text font-family="Yu Gothic,Yu Gothic_MSFontService,sans-serif" font-weight="400" font-size="24" transform="translate(319.603 322)">t</text><text font-family="Yu Gothic,Yu Gothic_MSFontService,sans-serif" font-weight="400" font-size="24" transform="translate(328.103 322)">dat</text><text font-family="Yu Gothic,Yu Gothic_MSFontService,sans-serif" font-weight="400" font-size="24" transform="translate(363.769 322)">[7:0]</text><text font-family="Yu Gothic,Yu Gothic_MSFontService,sans-serif" font-weight="400" font-size="24" transform="translate(319.603 368)">cdiv[1:0]</text><text font-family="Yu Gothic,Yu Gothic_MSFontService,sans-serif" font-weight="400" font-size="24" transform="translate(379.347 506)">sc</text><text font-family="Yu Gothic,Yu Gothic_MSFontService,sans-serif" font-weight="400" font-size="24" transform="translate(403.847 506)">k</text><text font-family="Yu Gothic,Yu Gothic_MSFontService,sans-serif" font-weight="400" font-size="24" transform="translate(366.557 552)">dou</text><text font-family="Yu Gothic,Yu Gothic_MSFontService,sans-serif" font-weight="400" font-size="24" transform="translate(407.89 552)">t</text><rect x="426" y="534" width="76" height="18" stroke="#042433" stroke-width="2" stroke-miterlimit="8" fill="none"/><rect x="426" y="579" width="76" height="19" stroke="#042433" stroke-width="2" stroke-miterlimit="8" fill="none"/><rect x="425" y="625" width="76" height="19" stroke="#042433" stroke-width="2" stroke-miterlimit="8" fill="none"/><rect x="425" y="488" width="76" height="19" stroke="#042433" stroke-width="2" stroke-miterlimit="8" fill="none"/><text font-family="Yu Gothic,Yu Gothic_MSFontService,sans-serif" font-weight="400" font-size="24" transform="translate(361.676 597)">don</text><text font-family="Yu Gothic,Yu Gothic_MSFontService,sans-serif" font-weight="400" font-size="24" transform="translate(403.009 597)">e</text><text font-family="Yu Gothic,Yu Gothic_MSFontService,sans-serif" font-weight="400" font-size="24" transform="translate(305.97 643)">r</text><text font-family="Yu Gothic,Yu Gothic_MSFontService,sans-serif" font-weight="400" font-size="24" transform="translate(314.637 643)">data</text><text font-family="Yu Gothic,Yu Gothic_MSFontService,sans-serif" font-weight="400" font-size="24" transform="translate(363.637 643)">[7:0</text><text font-family="Yu Gothic,Yu Gothic_MSFontService,sans-serif" font-weight="400" font-size="24" transform="translate(406.47 643)">]</text><rect x="729" y="120" width="76" height="19" stroke="#042433" stroke-width="2" stroke-miterlimit="8" fill="none"/><rect x="729" y="166" width="76" height="19" stroke="#042433" stroke-width="2" stroke-miterlimit="8" fill="none"/><rect x="729" y="212" width="76" height="19" stroke="#042433" stroke-width="2" stroke-miterlimit="8" fill="none"/><rect x="729" y="258" width="76" height="19" stroke="#042433" stroke-width="2" stroke-miterlimit="8" fill="none"/><rect x="729" y="304" width="76" height="19" stroke="#042433" stroke-width="2" stroke-miterlimit="8" fill="none"/><rect x="729" y="350" width="76" height="19" stroke="#042433" stroke-width="2" stroke-miterlimit="8" fill="none"/><rect x="729" y="396" width="76" height="19" stroke="#042433" stroke-width="2" stroke-miterlimit="8" fill="none"/><rect x="729" y="442" width="76" height="19" stroke="#042433" stroke-width="2" stroke-miterlimit="8" fill="none"/><rect x="729" y="535" width="76" height="19" stroke="#042433" stroke-width="2" stroke-miterlimit="8" fill="none"/><rect x="729" y="581" width="76" height="19" stroke="#042433" stroke-width="2" stroke-miterlimit="8" fill="none"/><rect x="728" y="627" width="76" height="19" stroke="#042433" stroke-width="2" stroke-miterlimit="8" fill="none"/><rect x="729" y="489" width="76" height="18" stroke="#042433" stroke-width="2" stroke-miterlimit="8" fill="none"/><path d="M502.001 312 722.828 312.206 722.826 314.206 501.999 314ZM721.497 309.205 729.494 313.212 721.49 317.205Z"/><path d="M502 267 722.827 267.032 722.827 269.032 502 269ZM721.494 264.031 729.494 268.033 721.493 272.031Z"/><path d="M0.000647972-1 220.491-0.857128 220.49 1.14287-0.000647972 1ZM219.16-3.85799 227.157 0.147192 219.155 4.14201Z" transform="matrix(1 0 0 -1 502 222.147)"/><path d="M0.00143709-0.999999 220.827-0.682652 220.825 1.31735-0.00143709 0.999999ZM219.499-3.68456 227.494 0.326929 219.488 4.31543Z" transform="matrix(1 0 0 -1 502 175.327)"/><path d="M0.00222716-0.999997 220.828-0.50818 220.824 1.49182-0.00222716 0.999997ZM219.502-3.51114 227.494 0.506667 219.485 4.48884Z" transform="matrix(1 0 0 -1 502 129.507)"/><path d="M502.002 358 722.829 358.381 722.825 360.381 501.998 360ZM721.5 355.378 729.494 359.392 721.487 363.378Z"/><path d="M502.003 404 722.829 404.555 722.824 406.555 501.997 406ZM721.504 401.552 729.494 405.572 721.484 409.552Z"/><path d="M729.49 452.751 508.664 452.022 508.671 450.022 729.497 450.751ZM509.987 455.026 502 451 510.013 447.026Z"/><path d="M729.498 498.931 507.663 498.027 507.671 496.027 729.506 496.931ZM508.984 501.033 501 497 509.016 493.033Z"/><path d="M729.489 545.111 508.662 544.033 508.672 542.033 729.498 543.111ZM509.98 547.039 502 543 510.019 539.039Z"/><path d="M729.824 591.291 508.662 590.038 508.673 588.038 729.836 589.291ZM509.977 593.045 502 589 510.023 585.045Z"/><path d="M728.332 637.47 507.66 636.043 507.673 634.043 728.345 635.47ZM508.974 639.052 501 635 509.026 631.052Z"/><text font-family="Yu Gothic,Yu Gothic_MSFontService,sans-serif" font-weight="400" font-size="24" transform="translate(365.21 276)">star</text><text font-family="Yu Gothic,Yu Gothic_MSFontService,sans-serif" font-weight="400" font-size="24" transform="translate(407.877 276)">t</text><text font-family="Yu Gothic,Yu Gothic_MSFontService,sans-serif" font-weight="400" font-size="24" transform="translate(814.111 138)">rst</text><text font-family="Yu Gothic,Yu Gothic_MSFontService,sans-serif" font-weight="400" font-size="24" transform="translate(843.445 138)">b</text><text font-family="Yu Gothic,Yu Gothic_MSFontService,sans-serif" font-weight="400" font-size="24" transform="translate(814.111 414)">di</text><text font-family="Yu Gothic,Yu Gothic_MSFontService,sans-serif" font-weight="400" font-size="24" transform="translate(834.278 414)">n</text><text font-family="Yu Gothic,Yu Gothic_MSFontService,sans-serif" font-weight="400" font-size="24" transform="translate(814.111 460)">s</text><text font-family="Yu Gothic,Yu Gothic_MSFontService,sans-serif" font-weight="400" font-size="24" transform="translate(826.278 460)">s</text><text font-family="Yu Gothic,Yu Gothic_MSFontService,sans-serif" font-weight="400" font-size="24" transform="translate(814.111 184)">cl</text><text font-family="Yu Gothic,Yu Gothic_MSFontService,sans-serif" font-weight="400" font-size="24" transform="translate(832.778 184)">k</text><text font-family="Yu Gothic,Yu Gothic_MSFontService,sans-serif" font-weight="400" font-size="24" transform="translate(814.111 230)">ml</text><text font-family="Yu Gothic,Yu Gothic_MSFontService,sans-serif" font-weight="400" font-size="24" transform="translate(841.111 230)">b</text><text font-family="Yu Gothic,Yu Gothic_MSFontService,sans-serif" font-weight="400" font-size="24" transform="translate(814.111 322)">t</text><text font-family="Yu Gothic,Yu Gothic_MSFontService,sans-serif" font-weight="400" font-size="24" transform="translate(822.611 322)">dat</text><text font-family="Yu Gothic,Yu Gothic_MSFontService,sans-serif" font-weight="400" font-size="24" transform="translate(858.278 322)">[7:0]</text><text font-family="Yu Gothic,Yu Gothic_MSFontService,sans-serif" font-weight="400" font-size="24" transform="translate(814.111 368)">cdiv[1:0]</text><text font-family="Yu Gothic,Yu Gothic_MSFontService,sans-serif" font-weight="400" font-size="24" transform="translate(814.111 506)">sc</text><text font-family="Yu Gothic,Yu Gothic_MSFontService,sans-serif" font-weight="400" font-size="24" transform="translate(838.611 506)">k</text><text font-family="Yu Gothic,Yu Gothic_MSFontService,sans-serif" font-weight="400" font-size="24" transform="translate(814.111 552)">dou</text><text font-family="Yu Gothic,Yu Gothic_MSFontService,sans-serif" font-weight="400" font-size="24" transform="translate(855.445 552)">t</text><text font-family="Yu Gothic,Yu Gothic_MSFontService,sans-serif" font-weight="400" font-size="24" transform="translate(814.111 597)">don</text><text font-family="Yu Gothic,Yu Gothic_MSFontService,sans-serif" font-weight="400" font-size="24" transform="translate(855.445 597)">e</text><text font-family="Yu Gothic,Yu Gothic_MSFontService,sans-serif" font-weight="400" font-size="24" transform="translate(814.111 643)">r</text><text font-family="Yu Gothic,Yu Gothic_MSFontService,sans-serif" font-weight="400" font-size="24" transform="translate(822.778 643)">data</text><text font-family="Yu Gothic,Yu Gothic_MSFontService,sans-serif" font-weight="400" font-size="24" transform="translate(871.778 643)">[7:0</text><text font-family="Yu Gothic,Yu Gothic_MSFontService,sans-serif" font-weight="400" font-size="24" transform="translate(914.611 643)">]</text><text font-family="Yu Gothic,Yu Gothic_MSFontService,sans-serif" font-weight="400" font-size="24" transform="translate(814.111 276)">star</text><text font-family="Yu Gothic,Yu Gothic_MSFontService,sans-serif" font-weight="400" font-size="24" transform="translate(856.778 276)">t</text></g></svg>