<svg width="1280" height="720" viewBox="0 0 1280 720" xmlns="http://www.w3.org/2000/svg"><defs><marker id="arrow" markerWidth="10" markerHeight="8" refX="9" refY="4" orient="auto" markerUnits="strokeWidth"><path d="M0,0 L10,4 L0,8 Z" fill="#042433"/></marker></defs><rect x="0" y="0" width="1280" height="720" fill="#FFFFFF"/><text x="385" y="75" text-anchor="middle" font-family="Yu Gothic, sans-serif" font-size="24" fill="#042433">tb_sha256.v</text><text x="895" y="75" text-anchor="middle" font-family="Yu Gothic, sans-serif" font-size="24" fill="#042433">sha256.v</text><rect x="250" y="120" width="270" height="500" rx="16" ry="16" fill="none" stroke="#042433" stroke-width="2"/><rect x="760" y="120" width="270" height="500" rx="16" ry="16" fill="none" stroke="#042433" stroke-width="2"/><rect x="438" y="160" width="82" height="20" fill="none" stroke="#042433" stroke-width="2"/><rect x="760" y="160" width="82" height="20" fill="none" stroke="#042433" stroke-width="2"/><text x="424" y="178" text-anchor="end" font-family="Yu Gothic, sans-serif" font-size="24" fill="#042433">clk_i</text><text x="856" y="178" text-anchor="start" font-family="Yu Gothic, sans-serif" font-size="24" fill="#042433">clk_i</text><line x1="520" y1="170" x2="760" y2="170" stroke="#042433" stroke-width="2" marker-end="url(#arrow)"/><rect x="438" y="230" width="82" height="20" fill="none" stroke="#042433" stroke-width="2"/><rect x="760" y="230" width="82" height="20" fill="none" stroke="#042433" stroke-width="2"/><text x="424" y="248" text-anchor="end" font-family="Yu Gothic, sans-serif" font-size="24" fill="#042433">rst_i</text><text x="856" y="248" text-anchor="start" font-family="Yu Gothic, sans-serif" font-size="24" fill="#042433">rst_i</text><line x1="520" y1="240" x2="760" y2="240" stroke="#042433" stroke-width="2" marker-end="url(#arrow)"/><rect x="438" y="300" width="82" height="20" fill="none" stroke="#042433" stroke-width="2"/><rect x="760" y="300" width="82" height="20" fill="none" stroke="#042433" stroke-width="2"/><text x="424" y="318" text-anchor="end" font-family="Yu Gothic, sans-serif" font-size="24" fill="#042433">text_i[31:0]</text><text x="856" y="318" text-anchor="start" font-family="Yu Gothic, sans-serif" font-size="24" fill="#042433">text_i[31:0]</text><line x1="520" y1="310" x2="760" y2="310" stroke="#042433" stroke-width="2" marker-end="url(#arrow)"/><rect x="438" y="370" width="82" height="20" fill="none" stroke="#042433" stroke-width="2"/><rect x="760" y="370" width="82" height="20" fill="none" stroke="#042433" stroke-width="2"/><text x="424" y="388" text-anchor="end" font-family="Yu Gothic, sans-serif" font-size="24" fill="#042433">cmd_i[2:0]</text><text x="856" y="388" text-anchor="start" font-family="Yu Gothic, sans-serif" font-size="24" fill="#042433">cmd_i[2:0]</text><line x1="520" y1="380" x2="760" y2="380" stroke="#042433" stroke-width="2" marker-end="url(#arrow)"/><rect x="438" y="440" width="82" height="20" fill="none" stroke="#042433" stroke-width="2"/><rect x="760" y="440" width="82" height="20" fill="none" stroke="#042433" stroke-width="2"/><text x="424" y="458" text-anchor="end" font-family="Yu Gothic, sans-serif" font-size="24" fill="#042433">cmd_w_i</text><text x="856" y="458" text-anchor="start" font-family="Yu Gothic, sans-serif" font-size="24" fill="#042433">cmd_w_i</text><line x1="520" y1="450" x2="760" y2="450" stroke="#042433" stroke-width="2" marker-end="url(#arrow)"/><rect x="438" y="520" width="82" height="20" fill="none" stroke="#042433" stroke-width="2"/><rect x="760" y="520" width="82" height="20" fill="none" stroke="#042433" stroke-width="2"/><text x="424" y="538" text-anchor="end" font-family="Yu Gothic, sans-serif" font-size="24" fill="#042433">text_o[31:0]</text><text x="856" y="538" text-anchor="start" font-family="Yu Gothic, sans-serif" font-size="24" fill="#042433">text_o[31:0]</text><line x1="760" y1="530" x2="520" y2="530" stroke="#042433" stroke-width="2" marker-end="url(#arrow)"/><rect x="438" y="580" width="82" height="20" fill="none" stroke="#042433" stroke-width="2"/><rect x="760" y="580" width="82" height="20" fill="none" stroke="#042433" stroke-width="2"/><text x="424" y="598" text-anchor="end" font-family="Yu Gothic, sans-serif" font-size="24" fill="#042433">cmd_o[3:0]</text><text x="856" y="598" text-anchor="start" font-family="Yu Gothic, sans-serif" font-size="24" fill="#042433">cmd_o[3:0]</text><line x1="760" y1="590" x2="520" y2="590" stroke="#042433" stroke-width="2" marker-end="url(#arrow)"/><text x="640" y="675" text-anchor="middle" font-family="Yu Gothic, sans-serif" font-size="20" fill="#042433">512 bit block input is supplied as 16 x 32 bit words; 256 bit digest is read as 8 x 32 bit words.</text></svg>