<svg width="1280" height="720" xmlns="http://www.w3.org/2000/svg" xmlns:xlink="http://www.w3.org/1999/xlink" overflow="hidden"><g><rect x="0" y="0" width="1280" height="720" fill="#FFFFFF"/><path d="M286 101.167C286 83.954 299.954 70 317.167 70L977.833 70C995.046 70 1009 83.954 1009 101.167L1009 225.833C1009 243.046 995.046 257 977.833 257L317.167 257C299.954 257 286 243.046 286 225.833Z" stroke="#042433" stroke-width="2" stroke-miterlimit="8" fill="none" fill-rule="evenodd"/><path d="M324 374.285C324 362.529 333.529 353 345.285 353L673.715 353C685.471 353 695 362.529 695 374.285L695 599.715C695 611.471 685.471 621 673.715 621L345.285 621C333.529 621 324 611.471 324 599.715Z" stroke="#042433" stroke-width="2" stroke-miterlimit="8" fill="none" fill-rule="evenodd"/><text font-family="Yu Gothic,Yu Gothic_MSFontService,sans-serif" font-weight="400" font-size="24" transform="translate(295.875 51)">tb_txuartlite</text><text font-family="Yu Gothic,Yu Gothic_MSFontService,sans-serif" font-weight="400" font-size="24" transform="translate(313.209 648)">txuartlite</text><rect x="366" y="353" width="102" height="50" stroke="#042433" stroke-width="2" stroke-miterlimit="8" fill="none"/><text font-family="Yu Gothic,Yu Gothic_MSFontService,sans-serif" font-weight="400" font-size="24" transform="translate(369.271 430)">o_uart_tx</text><rect x="539" y="353" width="102" height="50" stroke="#042433" stroke-width="2" stroke-miterlimit="8" fill="none"/><text font-family="Yu Gothic,Yu Gothic_MSFontService,sans-serif" font-weight="400" font-size="24" transform="translate(551.302 430)">i_data</text><rect x="539" y="206" width="102" height="51" stroke="#042433" stroke-width="2" stroke-miterlimit="8" fill="none"/><text font-family="Yu Gothic,Yu Gothic_MSFontService,sans-serif" font-weight="400" font-size="24" transform="translate(547.852 192)">tx_data</text><path d="M0 0 0.000104987 95.6968" stroke="#000000" stroke-width="2" stroke-miterlimit="8" fill="none" fill-rule="evenodd" transform="matrix(-1 0 0 1 590 257)"/><rect x="366" y="206" width="102" height="51" stroke="#042433" stroke-width="2" stroke-miterlimit="8" fill="none"/><text font-family="Yu Gothic,Yu Gothic_MSFontService,sans-serif" font-weight="400" font-size="24" transform="translate(380.354 195)">tx_line</text><path d="M0 0 0.000104987 95.6968" stroke="#000000" stroke-width="2" stroke-miterlimit="8" fill="none" fill-rule="evenodd" transform="matrix(-1 0 0 1 417 257)"/><rect x="590" y="458" width="105" height="51" stroke="#042433" stroke-width="2" stroke-miterlimit="8" fill="none"/><text font-family="Yu Gothic,Yu Gothic_MSFontService,sans-serif" font-weight="400" font-size="24" transform="translate(526.802 491)">i_wr</text><rect x="720" y="206" width="92" height="51" stroke="#042433" stroke-width="2" stroke-miterlimit="8" fill="none"/><text font-family="Yu Gothic,Yu Gothic_MSFontService,sans-serif" font-weight="400" font-size="24" transform="translate(735.737 195)">tx_wr</text><path d="M765.786 257 765.786 483.095 695 483.095" stroke="#000000" stroke-width="2" stroke-miterlimit="8" fill="none" fill-rule="evenodd"/><rect x="876" y="206" width="93" height="51" stroke="#042433" stroke-width="2" stroke-miterlimit="8" fill="none"/><rect x="589" y="543" width="105" height="51" stroke="#042433" stroke-width="2" stroke-miterlimit="8" fill="none"/><text font-family="Yu Gothic,Yu Gothic_MSFontService,sans-serif" font-weight="400" font-size="24" transform="translate(880.075 195)">tx_busy</text><text font-family="Yu Gothic,Yu Gothic_MSFontService,sans-serif" font-weight="400" font-size="24" transform="translate(502.48 576)">o_busy</text><path d="M922.508 257 922.508 568.062 694 568.062" stroke="#000000" stroke-width="2" stroke-miterlimit="8" fill="none" fill-rule="evenodd"/></g></svg>