<svg width="1280" height="720" xmlns="http://www.w3.org/2000/svg" xmlns:xlink="http://www.w3.org/1999/xlink" overflow="hidden"><g><rect x="0" y="0" width="1280" height="720" fill="#FFFFFF"/><text font-family="Yu Gothic,Yu Gothic_MSFontService,sans-serif" font-weight="400" font-size="24" transform="translate(40.7209 34)">tb_generic_fifo</text><text font-family="Yu Gothic,Yu Gothic_MSFontService,sans-serif" font-weight="400" font-size="24" transform="translate(204.888 34)">_</text><text font-family="Yu Gothic,Yu Gothic_MSFontService,sans-serif" font-weight="400" font-size="24" transform="translate(216.888 34)">d</text><text font-family="Yu Gothic,Yu Gothic_MSFontService,sans-serif" font-weight="400" font-size="24" transform="translate(230.721 34)">c</text><text font-family="Yu Gothic,Yu Gothic_MSFontService,sans-serif" font-weight="400" font-size="24" transform="translate(483.371 34)">generic_fifo</text><text font-family="Yu Gothic,Yu Gothic_MSFontService,sans-serif" font-weight="400" font-size="24" transform="translate(613.038 34)">_</text><text font-family="Yu Gothic,Yu Gothic_MSFontService,sans-serif" font-weight="400" font-size="24" transform="translate(625.038 34)">d</text><text font-family="Yu Gothic,Yu Gothic_MSFontService,sans-serif" font-weight="400" font-size="24" transform="translate(638.871 34)">c</text><path d="M36 64.1586C36 54.1299 44.1299 46 54.1586 46L228.841 46C238.87 46 247 54.1299 247 64.1586L247 672.841C247 682.87 238.87 691 228.841 691L54.1586 691C44.1299 691 36 682.87 36 672.841Z" stroke="#042433" stroke-width="2" stroke-miterlimit="8" fill="none" fill-rule="evenodd"/><rect x="171" y="114" width="75" height="19" stroke="#042433" stroke-width="2" stroke-miterlimit="8" fill="none"/><rect x="171" y="152" width="75" height="18" stroke="#042433" stroke-width="2" stroke-miterlimit="8" fill="none"/><rect x="171" y="189" width="76" height="19" stroke="#042433" stroke-width="2" stroke-miterlimit="8" fill="none"/><rect x="171" y="265" width="75" height="18" stroke="#042433" stroke-width="2" stroke-miterlimit="8" fill="none"/><rect x="171" y="302" width="75" height="19" stroke="#042433" stroke-width="2" stroke-miterlimit="8" fill="none"/><rect x="171" y="340" width="75" height="19" stroke="#042433" stroke-width="2" stroke-miterlimit="8" fill="none"/><rect x="171" y="415" width="75" height="19" stroke="#042433" stroke-width="2" stroke-miterlimit="8" fill="none"/><rect x="171" y="453" width="75" height="19" stroke="#042433" stroke-width="2" stroke-miterlimit="8" fill="none"/><path d="M1256 668.264C1256 680.821 1245.82 691 1233.26 691L495.736 691C483.18 691 473 680.821 473 668.264L473 68.7365C473 56.1795 483.18 46.0001 495.736 46.0001L1233.26 46.0001C1245.82 46.0001 1256 56.1795 1256 68.7365Z" stroke="#042433" stroke-width="2" stroke-miterlimit="8" fill="none" fill-rule="evenodd"/><path d="M964 109.412C964 100.9 970.9 94 979.412 94L1226.59 94C1235.1 94 1242 100.9 1242 109.412L1242 456.588C1242 465.1 1235.1 472 1226.59 472L979.412 472C970.9 472 964 465.1 964 456.588Z" stroke="#042433" stroke-width="2" stroke-miterlimit="8" fill="none" fill-rule="evenodd"/><text font-family="Yu Gothic,Yu Gothic_MSFontService,sans-serif" font-weight="400" font-size="24" transform="translate(972.925 79)">generic_dpram</text><text font-family="Yu Gothic,Yu Gothic_MSFontService,sans-serif" font-weight="400" font-size="24" transform="translate(89.0234 131)">wr_</text><text font-family="Yu Gothic,Yu Gothic_MSFontService,sans-serif" font-weight="400" font-size="24" transform="translate(128.357 131)">clk</text><text font-family="Yu Gothic,Yu Gothic_MSFontService,sans-serif" font-weight="400" font-size="24" transform="translate(131.616 433)">rst</text><text font-family="Yu Gothic,Yu Gothic_MSFontService,sans-serif" font-weight="400" font-size="24" transform="translate(133.636 470)">clr</text><text font-family="Yu Gothic,Yu Gothic_MSFontService,sans-serif" font-weight="400" font-size="24" transform="translate(126.736 164)">din</text><text font-family="Yu Gothic,Yu Gothic_MSFontService,sans-serif" font-weight="400" font-size="24" transform="translate(127.829 205)">we</text><text font-family="Yu Gothic,Yu Gothic_MSFontService,sans-serif" font-weight="400" font-size="24" transform="translate(139.021 319)">re</text><text font-family="Yu Gothic,Yu Gothic_MSFontService,sans-serif" font-weight="400" font-size="24" transform="translate(110.916 354)">dout</text><text font-family="Yu Gothic,Yu Gothic_MSFontService,sans-serif" font-weight="400" font-size="24" transform="translate(125.894 508)">full</text><text font-family="Yu Gothic,Yu Gothic_MSFontService,sans-serif" font-weight="400" font-size="24" transform="translate(92.2353 545)">empty</text><rect x="171" y="528" width="75" height="19" stroke="#042433" stroke-width="2" stroke-miterlimit="8" fill="none"/><rect x="170" y="566" width="76" height="19" stroke="#042433" stroke-width="2" stroke-miterlimit="8" fill="none"/><rect x="170" y="641" width="75" height="19" stroke="#042433" stroke-width="2" stroke-miterlimit="8" fill="none"/><rect x="170" y="603" width="75" height="19" stroke="#042433" stroke-width="2" stroke-miterlimit="8" fill="none"/><rect x="170" y="490" width="75" height="19" stroke="#042433" stroke-width="2" stroke-miterlimit="8" fill="none"/><text font-family="Yu Gothic,Yu Gothic_MSFontService,sans-serif" font-weight="400" font-size="24" transform="translate(99.6402 583)">full_n</text><text font-family="Yu Gothic,Yu Gothic_MSFontService,sans-serif" font-weight="400" font-size="24" transform="translate(65.9813 620)">empty_n</text><text font-family="Yu Gothic,Yu Gothic_MSFontService,sans-serif" font-weight="400" font-size="24" transform="translate(109.738 658)">level</text><rect x="474" y="114" width="75" height="19" stroke="#042433" stroke-width="2" stroke-miterlimit="8" fill="none"/><rect x="474" y="152" width="75" height="18" stroke="#042433" stroke-width="2" stroke-miterlimit="8" fill="none"/><rect x="474" y="189" width="75" height="19" stroke="#042433" stroke-width="2" stroke-miterlimit="8" fill="none"/><rect x="474" y="265" width="75" height="18" stroke="#042433" stroke-width="2" stroke-miterlimit="8" fill="none"/><rect x="474" y="302" width="75" height="19" stroke="#042433" stroke-width="2" stroke-miterlimit="8" fill="none"/><rect x="474" y="340" width="75" height="19" stroke="#042433" stroke-width="2" stroke-miterlimit="8" fill="none"/><rect x="474" y="415" width="75" height="19" stroke="#042433" stroke-width="2" stroke-miterlimit="8" fill="none"/><rect x="474" y="453" width="75" height="19" stroke="#042433" stroke-width="2" stroke-miterlimit="8" fill="none"/><text font-family="Yu Gothic,Yu Gothic_MSFontService,sans-serif" font-weight="400" font-size="24" transform="translate(557.798 282)">rd_</text><text font-family="Yu Gothic,Yu Gothic_MSFontService,sans-serif" font-weight="400" font-size="24" transform="translate(592.298 282)">clk</text><text font-family="Yu Gothic,Yu Gothic_MSFontService,sans-serif" font-weight="400" font-size="24" transform="translate(557.798 432)">rst</text><text font-family="Yu Gothic,Yu Gothic_MSFontService,sans-serif" font-weight="400" font-size="24" transform="translate(557.798 470)">clr</text><text font-family="Yu Gothic,Yu Gothic_MSFontService,sans-serif" font-weight="400" font-size="24" transform="translate(557.798 168)">din</text><text font-family="Yu Gothic,Yu Gothic_MSFontService,sans-serif" font-weight="400" font-size="24" transform="translate(557.798 205)">we</text><text font-family="Yu Gothic,Yu Gothic_MSFontService,sans-serif" font-weight="400" font-size="24" transform="translate(557.798 321)">re</text><text font-family="Yu Gothic,Yu Gothic_MSFontService,sans-serif" font-weight="400" font-size="24" transform="translate(557.798 355)">dout</text><text font-family="Yu Gothic,Yu Gothic_MSFontService,sans-serif" font-weight="400" font-size="24" transform="translate(557.798 508)">full</text><text font-family="Yu Gothic,Yu Gothic_MSFontService,sans-serif" font-weight="400" font-size="24" transform="translate(557.798 547)">empty</text><rect x="474" y="528" width="75" height="19" stroke="#042433" stroke-width="2" stroke-miterlimit="8" fill="none"/><rect x="474" y="566" width="75" height="19" stroke="#042433" stroke-width="2" stroke-miterlimit="8" fill="none"/><rect x="474" y="641" width="75" height="19" stroke="#042433" stroke-width="2" stroke-miterlimit="8" fill="none"/><rect x="474" y="603" width="75" height="19" stroke="#042433" stroke-width="2" stroke-miterlimit="8" fill="none"/><rect x="474" y="490" width="75" height="19" stroke="#042433" stroke-width="2" stroke-miterlimit="8" fill="none"/><text font-family="Yu Gothic,Yu Gothic_MSFontService,sans-serif" font-weight="400" font-size="24" transform="translate(557.798 585)">full_n</text><text font-family="Yu Gothic,Yu Gothic_MSFontService,sans-serif" font-weight="400" font-size="24" transform="translate(557.798 623)">empty_n</text><text font-family="Yu Gothic,Yu Gothic_MSFontService,sans-serif" font-weight="400" font-size="24" transform="translate(557.798 662)">level</text><rect x="965" y="114" width="76" height="19" stroke="#042433" stroke-width="2" stroke-miterlimit="8" fill="none"/><rect x="965" y="152" width="76" height="18" stroke="#042433" stroke-width="2" stroke-miterlimit="8" fill="none"/><rect x="965" y="265" width="76" height="19" stroke="#042433" stroke-width="2" stroke-miterlimit="8" fill="none"/><rect x="965" y="189" width="76" height="19" stroke="#042433" stroke-width="2" stroke-miterlimit="8" fill="none"/><rect x="965" y="340" width="76" height="19" stroke="#042433" stroke-width="2" stroke-miterlimit="8" fill="none"/><rect x="640" y="114" width="76" height="19" stroke="#042433" stroke-width="2" stroke-miterlimit="8" fill="none"/><rect x="640" y="152" width="76" height="19" stroke="#042433" stroke-width="2" stroke-miterlimit="8" fill="none"/><rect x="640" y="265" width="76" height="19" stroke="#042433" stroke-width="2" stroke-miterlimit="8" fill="none"/><rect x="640" y="340" width="76" height="19" stroke="#042433" stroke-width="2" stroke-miterlimit="8" fill="none"/><rect x="640" y="189" width="76" height="19" stroke="#042433" stroke-width="2" stroke-miterlimit="8" fill="none"/><text font-family="Yu Gothic,Yu Gothic_MSFontService,sans-serif" font-weight="400" font-size="24" transform="translate(1045.14 393)">raddr</text><text font-family="Yu Gothic,Yu Gothic_MSFontService,sans-serif" font-weight="400" font-size="24" transform="translate(1048.52 431)">waddr</text><path d="M0.000438493-1 242.816-0.893527 242.815 1.10647-0.000438493 1ZM241.484-3.89411 249.483 0.109396 241.481 4.10589Z" transform="matrix(1 0 0 -1 716 198.109)"/><path d="M716 273 958.816 273 958.816 275 716 275ZM957.483 270 965.483 274 957.483 278Z"/><path d="M0.000544539-1 242.816-0.867777 242.815 1.13222-0.000544539 1ZM241.485-3.8685 249.483 0.135853 241.48 4.1315Z" transform="matrix(1 0 0 -1 716 124.136)"/><path d="M0.00192566-0.999998 242.818-0.532415 242.814 1.46758-0.00192566 0.999998ZM241.49-3.53498 249.483 0.48042 241.475 4.46501Z" transform="matrix(1 0 0 -1 716 161.48)"/><path d="M4.20819e-07-1 242.816-0.999898 242.816 1.0001-4.20819e-07 1ZM241.483-3.9999 249.483 0.000104987 241.483 4.0001Z" transform="matrix(-1 0 0 1 965.483 349)"/><path d="M246 311 466.827 311 466.827 313 246 313ZM465.494 308 473.494 312 465.494 316Z"/><path d="M246 273 466.827 273 466.827 275 246 275ZM465.494 270 473.494 274 465.494 278Z"/><path d="M247 198 467.491 198 467.491 200 247 200ZM466.157 195 474.157 199 466.157 203Z"/><path d="M246 160 466.827 160 466.827 162 246 162ZM465.494 157 473.494 161 465.494 165Z"/><path d="M246 122 466.827 122 466.827 124 246 124ZM465.494 119 473.494 123 465.494 127Z"/><path d="M4.61494e-07-1 220.827-0.999898 220.827 1.0001-4.61494e-07 1ZM219.494-3.9999 227.494 0.000104987 219.494 4.0001Z" transform="matrix(-1 0 0 1 473.494 349)"/><path d="M246 424 466.827 424 466.827 426 246 426ZM465.494 421 473.494 425 465.494 429Z"/><path d="M246 461 466.827 461 466.827 463 246 463ZM465.494 458 473.494 462 465.494 466Z"/><path d="M4.59456e-07-1 221.836-0.999898 221.836 1.0001-4.59456e-07 1ZM220.502-3.9999 228.502 0.000104987 220.502 4.0001Z" transform="matrix(-1 0 0 1 473.502 500)"/><path d="M4.62862e-07-1 220.154-0.999898 220.154 1.0001-4.62862e-07 1ZM218.821-3.9999 226.821 0.000104987 218.821 4.0001Z" transform="matrix(-1 0 0 1 472.821 538)"/><path d="M4.60813e-07-1 221.163-0.999898 221.163 1.0001-4.60813e-07 1ZM219.83-3.9999 227.83 0.000104987 219.83 4.0001Z" transform="matrix(-1 0 0 1 473.83 575)"/><path d="M4.59456e-07-1 221.836-0.999898 221.836 1.0001-4.59456e-07 1ZM220.502-3.9999 228.502 0.000104987 220.502 4.0001Z" transform="matrix(-1 0 0 1 473.502 613)"/><path d="M4.59456e-07-1 221.836-0.999898 221.836 1.0001-4.59456e-07 1ZM220.502-3.9999 228.502 0.000104987 220.502 4.0001Z" transform="matrix(-1 0 0 1 473.502 651)"/><text font-family="Yu Gothic,Yu Gothic_MSFontService,sans-serif" font-weight="400" font-size="24" transform="translate(1045.73 129)">wclk</text><text font-family="Yu Gothic,Yu Gothic_MSFontService,sans-serif" font-weight="400" font-size="24" transform="translate(1048.52 282)">rcl</text><text font-family="Yu Gothic,Yu Gothic_MSFontService,sans-serif" font-weight="400" font-size="24" transform="translate(1075.85 282)">k</text><text font-family="Yu Gothic,Yu Gothic_MSFontService,sans-serif" font-weight="400" font-size="24" transform="translate(1047.72 168)">di</text><text font-family="Yu Gothic,Yu Gothic_MSFontService,sans-serif" font-weight="400" font-size="24" transform="translate(1048.52 204)">we</text><text font-family="Yu Gothic,Yu Gothic_MSFontService,sans-serif" font-weight="400" font-size="24" transform="translate(1050.14 356)">do</text><text font-family="Yu Gothic,Yu Gothic_MSFontService,sans-serif" font-weight="400" font-size="24" transform="translate(557.798 132)">wr_</text><text font-family="Yu Gothic,Yu Gothic_MSFontService,sans-serif" font-weight="400" font-size="24" transform="translate(597.132 132)">clk</text><rect x="965" y="419" width="76" height="19" stroke="#042433" stroke-width="2" stroke-miterlimit="8" fill="none"/><rect x="965" y="381" width="76" height="19" stroke="#042433" stroke-width="2" stroke-miterlimit="8" fill="none"/><rect x="757" y="419" width="76" height="19" stroke="#042433" stroke-width="2" stroke-miterlimit="8" fill="none"/><rect x="757" y="380" width="76" height="19" stroke="#042433" stroke-width="2" stroke-miterlimit="8" fill="none"/><path d="M833.003 389 958.804 389.383 958.798 391.383 832.997 391ZM957.48 386.379 965.468 390.403 957.455 394.379Z"/><path d="M833 427 958.801 427 958.801 429 833 429ZM957.468 424 965.468 428 957.468 432Z"/><text font-family="Yu Gothic,Yu Gothic_MSFontService,sans-serif" font-weight="400" font-size="24" transform="translate(94.3373 281)">rd_clk</text><text font-family="Yu Gothic,Yu Gothic_MSFontService,sans-serif" font-weight="400" font-size="24" transform="translate(635.694 397)">rp</text><text font-family="Yu Gothic,Yu Gothic_MSFontService,sans-serif" font-weight="400" font-size="24" transform="translate(658.361 397)">[aw</text><text font-family="Yu Gothic,Yu Gothic_MSFontService,sans-serif" font-weight="400" font-size="24" transform="translate(699.695 397)">-</text><text font-family="Yu Gothic,Yu Gothic_MSFontService,sans-serif" font-weight="400" font-size="24" transform="translate(710.195 397)">1:0]</text><text font-family="Yu Gothic,Yu Gothic_MSFontService,sans-serif" font-weight="400" font-size="24" transform="translate(625.597 435)">wp[</text><text font-family="Yu Gothic,Yu Gothic_MSFontService,sans-serif" font-weight="400" font-size="24" transform="translate(667.597 435)">aw</text><text font-family="Yu Gothic,Yu Gothic_MSFontService,sans-serif" font-weight="400" font-size="24" transform="translate(699.597 435)">-</text><text font-family="Yu Gothic,Yu Gothic_MSFontService,sans-serif" font-weight="400" font-size="24" transform="translate(710.097 435)">1:0]</text></g></svg>